<svg id="fae5205b-d0b3-490e-a602-e4400964b2da" data-name="Layer 1" xmlns="http://www.w3.org/2000/svg" width="883.02897" height="802" viewBox="0 0 883.02897 802"><path d="M1041.51449,450a399.28933,399.28933,0,0,1-60.4,211.75c-1.37,2.2-2.77,4.39-4.18,6.56q-3.93,6.045-8.07,11.94c0,.01-.01.01-.02.02-1.65,2.36-3.34,4.7-5.04,7.02-2.18,2.96-4.4,5.9-6.66,8.79-.25.33-.51.66-.77.99q-5.925,7.575-12.21,14.85c-.45.53-.91,1.05-1.38,1.58-.71.83-1.44,1.65-2.17,2.47a402.23693,402.23693,0,0,1-73.8,65.11q-6.77994,4.66506-13.77,9.02c-.28.19-.56.36-.84.53q-5.94,3.705-12.03,7.2a.20837.20837,0,0,1-.06.04l-.02.01c-2.53,1.46-5.07,2.89-7.64,4.28a397.88906,397.88906,0,0,1-133.81,44.65q-11.895,1.74-24.01,2.75-16.875,1.43994-34.12,1.44-17.235,0-34.12-1.44-12.12-1.005-24.01-2.75a396.17481,396.17481,0,0,1-60.29-13.59q-16.75506-5.16-32.87-11.74c-3.43-1.4-6.85-2.85-10.23-4.34q-4.74-2.085-9.41-4.3a1.74763,1.74763,0,0,1-.28-.13c-.69-.32-1.38-.65-2.07-.98a399.20052,399.20052,0,0,1-49.51-28.27q-13.725-9.18-26.63-19.46a401.23923,401.23923,0,0,1-52.85-50.5q-1.695-1.93506-3.35-3.88c-.86-1.01-1.71-2.02-2.55-3.04q-6.75-8.06993-13.05-16.5c-.58-.77-1.15-1.55-1.72-2.33q-4.02-5.415-7.83-10.99-2.88-4.18506-5.65-8.45a399.174,399.174,0,0,1-64.58-218.31c0-221.47,179.53-401,401-401S1041.51449,228.53,1041.51449,450Z" transform="translate(-158.48551 -49)" fill="#f2f2f2"/><path d="M204.43843,494.0825c-34.19042-30.77119-54.893-79.70453-42.17022-123.90785a211.93228,211.93228,0,0,0,119.3456,83.238c18.66772,4.86578,39.93737,8.334,51.29453,23.92813,7.0669,9.70293,8.70792,22.525,7.03527,34.41114-1.673,11.88668-6.34879,23.112-10.98192,34.18569l.24525,2.9865C284.05547,540.13813,238.62886,524.85369,204.43843,494.0825Z" transform="translate(-158.48551 -49)" fill="#e6e6e6"/><path d="M163.22326,370.31415c8.68977,36.65705,29.1467,70.77535,57.85121,95.26078,6.20584,5.2937,12.96188,10.12363,20.54036,13.24627a44.74068,44.74068,0,0,0,23.38617,2.74589c7.389-.96087,14.83576-2.7994,22.32961-1.9474,7.89891.89805,14.498,5.32412,19.10807,11.69721,5.64052,7.79764,8.14285,17.157,10.27184,26.39469,2.36384,10.2567,4.65662,20.94766,11.42827,29.33026.82048,1.01567-.80347,2.22939-1.62271,1.21525-11.78151-14.58428-10.16985-34.77248-18.70254-50.88839-3.98152-7.52-10.25339-13.88566-18.89172-15.46526-7.55385-1.3813-15.23469.508-22.70775,1.54561-7.84683,1.08946-15.43861.826-22.96667-1.83291-7.70078-2.71989-14.65989-7.29587-20.97386-12.40769a175.74316,175.74316,0,0,1-36.45945-41.08212,184.35746,184.35746,0,0,1-24.60536-57.58187c-.30017-1.26626,1.71632-1.48831,2.01453-.23032Z" transform="translate(-158.48551 -49)" fill="#fff"/><path d="M211.3243,458.10826a27.17752,27.17752,0,0,1-35.1855.67934c-1.00737-.82864.233-2.433,1.24168-1.60322a25.16579,25.16579,0,0,0,32.72856-.69883c.97358-.86828,2.18327.7594,1.21526,1.62271Z" transform="translate(-158.48551 -49)" fill="#fff"/><path d="M261.31868,482.54772a52.38252,52.38252,0,0,0-11.36034-36.4453c-.81686-1.01854.80684-2.23256,1.62271-1.21525a54.48567,54.48567,0,0,1,11.74437,37.94867c-.09624,1.30353-2.10246,1.00833-2.00674-.28812Z" transform="translate(-158.48551 -49)" fill="#fff"/><path d="M177.04,410.03205a15.38379,15.38379,0,0,0,7.73373-12.38037c.07967-1.30411,2.0859-1.0075,2.00675.28811a17.23881,17.23881,0,0,1-8.52523,13.715,1.04772,1.04772,0,0,1-1.419-.20373,1.01878,1.01878,0,0,1,.20373-1.419Z" transform="translate(-158.48551 -49)" fill="#fff"/><path d="M305.05477,307.987c-.02659.81572-.05318,1.63143-.0662,2.45764a202.59707,202.59707,0,0,0,1.767,32.81648c.10081.84245.21567,1.6947.34048,2.5325a213.58154,213.58154,0,0,0,25.53955,74.37122,207.41366,207.41366,0,0,0,17.60908,26.13587c9.01055,11.39693,19.68708,23.03718,24.27145,36.35319a35.58016,35.58016,0,0,1,1.22072,4.23137l-42.9055,61.50793c-.16765.09085-.32183.19213-.49.28366l-1.6008,2.53415c-.36619-.40213-.73736-.82707-1.10356-1.2292-.21339-.23239-.41723-.47848-.63062-.71086-.13924-.15926-.27808-.31927-.41283-.455-.04654-.05284-.0926-.10636-.12519-.14946-.13474-.13576-.24549-.27617-.36619-.40213q-3.12191-3.5544-6.20469-7.16505c-.014-.0098-.014-.0098-.01853-.0333-15.61276-18.38089-29.82817-38.22669-40.57945-59.5992-.32325-.64313-.661-1.29537-.96468-1.9666a197.91906,197.91906,0,0,1-11.94549-30.00831,174.9699,174.9699,0,0,1-4.26548-17.18239,145.49955,145.49955,0,0,1-1.53815-45.46625c3.741-30.1855,17.09423-58.83855,40.655-77.4518C303.84376,308.91572,304.43766,308.453,305.05477,307.987Z" transform="translate(-158.48551 -49)" fill="#e6e6e6"/><path d="M305.739,308.66985c-15.13178,34.50045-19.33964,74.05849-11.16262,110.89083,1.76785,7.96307,4.25421,15.8871,8.42517,22.94312a44.7405,44.7405,0,0,0,17.01933,16.27253c6.47817,3.68146,13.531,6.697,19.00141,11.88908,5.76614,5.47273,8.37036,12.97982,8.21419,20.84394-.19107,9.622-3.82808,18.60146-7.68994,27.259-4.28785,9.6126-8.89388,19.52915-8.534,30.29918.0436,1.30494-1.98377,1.2963-2.02731-.00667-.62613-18.738,12.81537-33.88683,15.70539-51.89176,1.34854-8.40143.17337-17.26016-5.77282-23.72226-5.19969-5.65083-12.46993-8.76669-19.06143-12.43755-6.92119-3.85446-12.82416-8.63562-17.23406-15.291-4.51109-6.80808-7.31249-14.65161-9.27617-22.53455a175.74275,175.74275,0,0,1-4.37655-54.75288,184.357,184.357,0,0,1,15.02226-60.79c.5227-1.19176,2.26644-.155,1.74715,1.029Z" transform="translate(-158.48551 -49)" fill="#fff"/><path d="M291.28684,407.72869A27.17752,27.17752,0,0,1,262.78418,387.087c-.30543-1.26813,1.65083-1.80232,1.95666-.5325a25.16579,25.16579,0,0,0,26.55267,19.14688c1.30012-.10711,1.286,1.92081-.00667,2.02731Z" transform="translate(-158.48551 -49)" fill="#fff"/><path d="M316.49031,457.3423a52.38248,52.38248,0,0,0,12.872-35.93924c-.039-1.305,1.98837-1.29681,2.02731.00667a54.4857,54.4857,0,0,1-13.47049,37.37081c-.86166.98285-2.28579-.46073-1.42881-1.43824Z" transform="translate(-158.48551 -49)" fill="#fff"/><path d="M292.85793,348.701a15.38378,15.38378,0,0,0,13.62879-5.2288c.84877-.99328,2.27206.45142,1.42881,1.43825a17.23882,17.23882,0,0,1-15.06427,5.81786,1.04772,1.04772,0,0,1-1.01032-1.017,1.01877,1.01877,0,0,1,1.017-1.01031Z" transform="translate(-158.48551 -49)" fill="#fff"/><path d="M760.5991,227.43938c24.42453-22.92724,38.75092-58.87259,28.81206-90.86336a154.34508,154.34508,0,0,1-85.62587,62.42986c-13.51793,3.828-28.95171,6.67813-36.98283,18.206-4.9973,7.1728-5.99629,16.5338-4.59684,25.16273,1.39973,8.62933,4.97568,16.73121,8.51829,24.72338l-.133,2.17826C703.33223,262.18935,736.17457,250.36662,760.5991,227.43938Z" transform="translate(-158.48551 -49)" fill="#e6e6e6"/><path d="M788.71791,136.69218a131.92353,131.92353,0,0,1-40.66722,70.24452,56.81065,56.81065,0,0,1-14.75341,9.95857,32.5836,32.5836,0,0,1-16.98589,2.35656c-5.39468-.58676-10.8449-1.81167-16.28827-1.07685a19.951,19.951,0,0,0-13.7342,8.8088c-3.98784,5.76374-5.66686,12.61665-7.0759,19.37528-1.56447,7.50417-3.07058,15.32345-7.87307,21.53038-.58189.75206.61907,1.611,1.20008.86006,8.35552-10.799,6.87367-25.47372,12.84028-37.33831,2.78413-5.53623,7.25354-10.267,13.51911-11.54906,5.479-1.12113,11.10037.1372,16.55746.77851a34.769,34.769,0,0,0,16.69439-1.68539,52.52011,52.52011,0,0,0,15.08186-9.3546,127.98938,127.98938,0,0,0,25.91914-30.46945,134.26294,134.26294,0,0,0,17.036-42.30209c.19922-.92657-1.27241-1.05745-1.47032-.13693Z" transform="translate(-158.48551 -49)" fill="#fff"/><path d="M755.03588,201.35117a19.79272,19.79272,0,0,0,25.62948-.04283c.72082-.61874-.2068-1.76792-.92858-1.14837a18.32762,18.32762,0,0,1-23.84084-.00889c-.72214-.61733-1.57807.58628-.86006,1.20009Z" transform="translate(-158.48551 -49)" fill="#fff"/><path d="M719.00753,219.90959a38.14886,38.14886,0,0,1,7.71492-26.70991c.57921-.75409-.62157-1.61324-1.20008-.86006a39.68056,39.68056,0,0,0-7.97158,27.8104c.09.94765,1.54623.70207,1.45674-.24043Z" transform="translate(-158.48551 -49)" fill="#fff"/><path d="M779.26444,165.82244a11.20364,11.20364,0,0,1-5.82016-8.8962c-.07793-.94832-1.53416-.70172-1.45674.24043a12.55457,12.55457,0,0,0,6.41685,9.85585.763.763,0,0,0,1.03007-.17.742.742,0,0,0-.17-1.03007Z" transform="translate(-158.48551 -49)" fill="#fff"/><path d="M684.49616,93.47735c.03181.59353.06363,1.18706.08573,1.78844a147.5457,147.5457,0,0,1-.78527,23.92117c-.06054.61494-.13115,1.23723-.20923,1.84915a155.54622,155.54622,0,0,1-17.45969,54.541A151.05448,151.05448,0,0,1,653.70549,194.876c-6.38663,8.43591-13.98257,17.07444-17.11712,26.84006a25.91523,25.91523,0,0,0-.82418,3.09957l32.17969,44.12948c.12347.06358.23727.135.36109.199l1.20427,1.8207c.26049-.29839.52425-.61347.78475-.91186.15182-.17246.29648-.35476.4483-.52722.09895-.11809.1976-.23671.29364-.33762.03308-.03918.0658-.07886.08887-.11074.096-.1009.17453-.20483.26049-.29839q2.2188-2.6357,4.40827-5.31176c.01008-.00734.01008-.00734.013-.02453,11.08712-13.62189,21.13442-28.28906,28.63612-44.01494.22554-.47321.46152-.95328.67236-1.44665a144.14063,144.14063,0,0,0,8.23931-22.032,127.42753,127.42753,0,0,0,2.8433-12.57592,105.96369,105.96369,0,0,0,.42544-33.12816c-3.185-21.92139-13.34534-42.58014-30.78462-55.77283C685.39209,94.13505,684.9526,93.80718,684.49616,93.47735Z" transform="translate(-158.48551 -49)" fill="#e6e6e6"/><path d="M684.00841,93.985A131.92352,131.92352,0,0,1,693.83,174.55578a56.8108,56.8108,0,0,1-5.784,16.83394A32.58353,32.58353,0,0,1,675.90247,203.498c-4.66062,2.77948-9.7498,5.08286-13.65361,8.94687a19.95094,19.95094,0,0,0-5.66248,15.30226c.2861,7.003,3.07142,13.48553,6.01555,19.73026,3.26888,6.93358,6.77408,14.08361,6.67656,21.93094-.01181.95081,1.46422.91355,1.476-.03583.16967-13.653-9.8487-24.47776-12.228-37.54328-1.11022-6.09661-.38989-12.56474,3.84092-17.36072,3.69965-4.19388,8.94563-6.57364,13.68893-9.34713a34.76921,34.76921,0,0,0,12.31481-11.39687,52.52025,52.52025,0,0,0,6.4099-16.54945,127.98937,127.98937,0,0,0,2.35027-39.93326,134.26276,134.26276,0,0,0-11.86652-44.03268c-.39879-.85975-1.6526-.07823-1.25641.77591Z" transform="translate(-158.48551 -49)" fill="#fff"/><path d="M696.04437,165.89048a19.79273,19.79273,0,0,0,20.43792-15.46491c.203-.928-1.22953-1.28708-1.43281-.35784a18.32762,18.32762,0,0,1-19.04093,14.34673c-.94827-.05813-.907,1.41822.03582,1.476Z" transform="translate(-158.48551 -49)" fill="#fff"/><path d="M678.4512,202.3999a38.14883,38.14883,0,0,1-9.92127-25.97129c.00845-.95082-1.46758-.91385-1.476.03582a39.68059,39.68059,0,0,0,10.37893,27.0045c.64239.70246,1.65727-.37038,1.01836-1.069Z" transform="translate(-158.48551 -49)" fill="#fff"/><path d="M693.99878,122.93551a11.20363,11.20363,0,0,1-10.00321-3.599c-.63317-.71026-1.64742.36339-1.01837,1.069a12.55463,12.55463,0,0,0,11.0574,4.006.763.763,0,0,0,.7201-.75592.742.742,0,0,0-.75592-.7201Z" transform="translate(-158.48551 -49)" fill="#fff"/><path d="M289.76009,427.01125a27.21468,27.21468,0,0,1,27.21471,27.21464v.00007a27.21951,27.21951,0,0,1-22.00338,26.71066v44.5108H277.60033V427.01125Z" transform="translate(-158.48551 -49)" fill="#3f3d56"/><path d="M956.37447,687.75v9.32q-5.925,7.575-12.21,14.85c-.45.53-.91,1.05-1.38,1.58-.71.83-1.44,1.65-2.17,2.47V687.75Z" transform="translate(-158.48551 -49)" fill="#cacaca"/><path d="M910.13448,668.31a13.15545,13.15545,0,0,0-13.14,13.14v18.91a13.15545,13.15545,0,0,0,13.14,13.14h32.65c.47-.53.93-1.05,1.38-1.58q6.285-7.275,12.21-14.85c.26-.33.52-.66.77-.99,2.26-2.89,4.48-5.83,6.66-8.79,1.7-2.32,3.39-4.66,5.04-7.02.01-.01.02-.01.02-.02q4.14-5.88006,8.07-11.94Z" transform="translate(-158.48551 -49)" fill="#3f3d56"/><path d="M994.20449,506.45a18.99877,18.99877,0,0,0-6.24-1.04h-5.37a19.65556,19.65556,0,0,0-5.77.87,19.4381,19.4381,0,0,0-13.61,18.52V682.55c0,.59.03,1.17.08,1.74a18.42183,18.42183,0,0,0,.51,3c1.7-2.32,3.39-4.66,5.04-7.02.01-.01.02-.01.02-.02q4.14-5.88006,8.07-11.94c1.41-2.17,2.81-4.36,4.18-6.56a398.42507,398.42507,0,0,0,26.24-49.56V524.8A19.40741,19.40741,0,0,0,994.20449,506.45Z" transform="translate(-158.48551 -49)" fill="#3f3d56"/><path d="M332.3445,687.75v18.83q-6.75-8.06993-13.05-16.5c-.58-.77-1.15-1.55-1.72-2.33Z" transform="translate(-158.48551 -49)" fill="#cacaca"/><path d="M362.82448,668.31h-58.73q2.775,4.275,5.65,8.45,3.81,5.56494,7.83,10.99c.57.78,1.14,1.56,1.72,2.33q6.315,8.43007,13.05,16.5c.84,1.02,1.69,2.03,2.55,3.04q1.65,1.95,3.35,3.88h24.58a13.1469,13.1469,0,0,0,13.13-13.14V681.45A13.1469,13.1469,0,0,0,362.82448,668.31Z" transform="translate(-158.48551 -49)" fill="#3f3d56"/><path d="M299.31447,507.6a19.50889,19.50889,0,0,0-8.96-2.19h-5.36a19.18072,19.18072,0,0,0-7.39,1.47,19.41127,19.41127,0,0,0-12,17.92v67.77a398.87617,398.87617,0,0,0,38.49,75.74q2.775,4.275,5.65,8.45V524.8A19.421,19.421,0,0,0,299.31447,507.6Z" transform="translate(-158.48551 -49)" fill="#3f3d56"/><polygon points="359.293 751.483 376.909 747.441 369.703 677.569 343.703 683.535 359.293 751.483" fill="#9e616a"/><path d="M533.80446,739.86a20.48143,20.48143,0,0,1-.73-3.77,23.045,23.045,0,0,0-.88-4.45,23.358,23.358,0,0,0-1.85-3.8c-.35-.64-.72-1.28-1.05-1.93a15.98421,15.98421,0,0,1-.86-2.01c-10.31-30.44995-24.7-71.82995-34.68-96.05-5.87-14.25-41.97-18.99-76.03-20.2-4.15-.15-8.27-.25-12.3-.3-1.39-.02-2.77-.04-4.14-.05-3.5-.02-6.91-.02-10.19.02-.43,0-.86,0-1.29.01q-3.58492.03-6.95.1c-15.42.3-26.75,1-28.77,1.13l-17.99-11.31-3.51-2.21-.37,2.21-2.83,16.86-4.83,28.77,12.11005,3.4,7.86,2.2,46.57,13.06,9.9,2.78.06.02,16.67005-.03,45.57995-.08,2.2,5.83a10.27965,10.27965,0,0,0,4.21,14.84l1.71.81,20.83,55.12a24.93781,24.93781,0,0,0,4.47,13.93c.35.51.73,1.01,1.13,1.5l.46.55,8.01,15.67,4.77-1.1,20.3-4.65.1-.2c.01-.03.27-.58.65-1.54v-.03C533.73446,760.99,537.25448,750.14,533.80446,739.86Z" transform="translate(-158.48551 -49)" fill="#2f2e41"/><path d="M583.29451,805.13a26.21833,26.21833,0,0,0-25.48-20.36,26.47009,26.47009,0,0,0-5.91.68005l-14.07-6.35-3.94,2.77-16.34,11.46-1.35.31-4.38,1,6.05,26.37,65.62-15.05Z" transform="translate(-158.48551 -49)" fill="#2f2e41"/><path d="M496.25448,764.47l-5.95,48.24-.2,1.58-.88,7.19c-3.43-1.4-6.85-2.85-10.23-4.34q-4.74-2.085-9.41-4.3V764.48Z" transform="translate(-158.48551 -49)" fill="#9e616a"/><circle cx="208.65458" cy="347.7643" r="36.07316" fill="#9e616a"/><path d="M500.08449,782.88c-1-1.37-2.04-2.8-2.1-4.17-.23-4.83-.47-9.61-.72-14.29-.18-3.27-.36-6.5-.54-9.66-.02-.4-.05-.8-.07-1.19-.31-5.23,1.24-10.75,2.73-16.1.49-1.75.98-3.52,1.42-5.29a38.42964,38.42964,0,0,0,1.37-12.13c-2.56-32.39-14-62.85-19.13-67.98-7.8-7.80005-43.07-25.82-65.32-36.78-3.95-1.95-7.49-3.67-10.39-5.07-2.57-1.25-4.64-2.24-6.05-2.92-1.08-.51-1.78-.84-2.02-.96l-.12-.06-8.05.9-1.29.15-7.1.8-46.19,5.18-7.13.8-10.09,1.14-9.11,1.02-.34.03-.06.34c0,.01-.02.08-.04.21a95.31943,95.31943,0,0,0,0,29.84c1.18,6.71,3.41,13.53,7.37,19.27.54.78,1.1,1.53,1.7,2.25a.352.352,0,0,0,.08.1c.13.16.26.32.4.48v.01a32.91946,32.91946,0,0,0,17.37,10.57c1,.27,2.02.49,3.07.67,11.19,1.98,23.83,3.8,36.22,5.4,5.13.66,10.22,1.28,15.14,1.86,9.85,1.16,19.05,2.14,26.63,2.92,10.62,1.08,18.07995,1.75,19.74,1.89l18.55,86.54a12.68281,12.68281,0,0,0,2.14,15.61005l1.52,1.47,1.76,8.24,5.8,7.76.73.98h25.59l.14-.17c.09-.12,9.09-11.68,8.48-25.45C502.11446,785.67,501.12447,784.32,500.08449,782.88Z" transform="translate(-158.48551 -49)" fill="#2f2e41"/><path d="M499.38571,492.84494a13.74178,13.74178,0,0,0-17.30958,12.0159l-29.97253,9.3678,1.25037,19.60268,42.14122-13.82363a13.81626,13.81626,0,0,0,3.89052-27.16275Z" transform="translate(-158.48551 -49)" fill="#9e616a"/><path d="M479.82973,525.28356l-22.401,8.47839-.57276,1.11117a11.30162,11.30162,0,0,1-15.22368,4.86753h0L391.282,558.79741s-22.48546-22.50148-38.49425-42.58274l5.45606-33.55917a64.28908,64.28908,0,0,1,7.92341-22.08783c32.83125,7.19924,51.67742,53.09458,51.67742,53.09458l59.17013-11.29Z" transform="translate(-158.48551 -49)" fill="#6c63ff"/><path d="M362.014,430.90929c-9.03089,2.43906-18.98715-.80368-26.03488-6.95474s-11.45635-14.86706-13.99657-23.87c-1.86041-6.59357-2.74253-13.91273.1933-20.10281s10.83713-10.36639,16.933-7.23959c-3.76049-4.38128-1.8818-11.62771,2.51015-15.37574s10.42282-4.82259,16.16668-5.41c8.33593-.85249,16.94649-.9479,24.87879,1.75269s15.13953,8.60486,17.62207,16.60809a12.64026,12.64026,0,0,0,15.07662-3.404,11.45183,11.45183,0,0,1-6.30976,12.41714L421.20714,375.39c2.0902,4.42429-1.57232,9.9-6.2559,11.31682s-9.73931-.13181-14.1838-2.17871-8.75158-4.63474-13.57921-5.433-10.49835.75291-12.73139,5.10685c-1.16959,2.28044-1.23058,4.95122-1.90965,7.4225s-2.39921,5.03347-4.9541,5.23573c-1.61417.12778-3.19455-.732-4.80419-.55622a5.1767,5.1767,0,0,0-4.05441,3.96141,15.19885,15.19885,0,0,0-.01441,5.98l3.08724,23.598Z" transform="translate(-158.48551 -49)" fill="#2f2e41"/><path d="M407.33449,610.22l-1.91-2.87-13.94-20.91-.28-.41,4.31-22.36,1.34-6.98,2.93-15.19-.85-34.77-.61-24.6-.09-3.86-3.09-9.42a33.92877,33.92877,0,0,0-18-20.11l-20.8-9.52a10.141,10.141,0,0,0-13.69,5.65c-2.85.39-15.22,2.47-25.71,10.61a39.05757,39.05757,0,0,0-14.48,22.62c-.02.07-.03.14-.05.21-1.39,6.21-2.43,16.01-3.1,29.29q-.675,13.17-.85,30.86a448.62926,448.62926,0,0,0,3.31,58.82c.23,1.86.47,3.71.72,5.57.21,1.56,1.71,3.05,3.16,4.48,1.33,1.31,2.7,2.67,2.89,3.9.17,1.08-.52,2.21-1.34,3.39-.1.15-.21.3-.31.45-1.02,1.44995-2.07,2.96-1.8,4.55.63,3.58,1,7.22,1.35,10.74a113.66926,113.66926,0,0,0,2.1,14.42c.35,1.46.75,2.93,1.2,4.4,1.05,3.45,2.32,6.89,3.56,10.25,1.07,2.92,2.18,5.92,3.12,8.88.18.55.35,1.09.51,1.63l.08.28.29.05h.02a11.05876,11.05876,0,0,1,1.4-1.96.40588.40588,0,0,1,.09-.1q.21-.255.48-.54c2.19-2.39,6.95-6.68,17.37-13.91,2.33-1.61005,4.94-3.36005,7.86-5.28,10.71-7.01,25.67-16.14,46.57-27.93q7.86-4.44,16.87-9.39Z" transform="translate(-158.48551 -49)" fill="#6c63ff"/><path d="M519.50448,830.2a26.05834,26.05834,0,0,0-18.53-7.67l-10.87-8.24-1.43-1.09-9.68,3.94c3.38,1.49,6.8,2.94,10.23,4.34q16.095,6.57,32.87,11.74A26.32942,26.32942,0,0,0,519.50448,830.2Z" transform="translate(-158.48551 -49)" fill="#2f2e41"/><path d="M644.45487,205.8115V49.22517H634.03222V205.8115a57.322,57.322,0,0,0-52.11326,57.078v15.634h36.47928a20.84531,20.84531,0,1,0,41.69061,0h36.47928v-15.634A57.322,57.322,0,0,0,644.45487,205.8115Z" transform="translate(-158.48551 -49)" fill="#fff"/><polygon points="602.45 750.802 588.836 744.291 607.537 687.386 627.63 696.996 602.45 750.802" fill="#ffb6b6"/><path d="M852.20449,790.63q-5.94,3.705-12.03,7.2v.03l-.06.01-.02.01-1.54.38-2.21-5.84-5.1-13.47-13.9-36.7,21.61-5.33,1.22,4.95,9.14,37.07,2.62,10.6Z" transform="translate(-158.48551 -49)" fill="#ffb6b6"/><path d="M797.08959,552.46847a14.19228,14.19228,0,0,0,19.22615,4.82341,13.59583,13.59583,0,0,0,1.8244-1.3221l43.0409,24.7-1.86937-25.35518-40.58577-19.5683a14.13958,14.13958,0,0,0-17.15168-2.234A13.60708,13.60708,0,0,0,797.08959,552.46847Z" transform="translate(-158.48551 -49)" fill="#ffb6b6"/><path d="M842.67654,571.36886l7.60828,4.63663,34.16912,20.83626a20.147,20.147,0,0,0,27.77684-6.41119,19.71266,19.71266,0,0,0,2.51261-13.91605l-15.18677-75.87309a21.05267,21.05267,0,0,0-27.63657-15.97634,20.04469,20.04469,0,0,0-12.6472,24.35077L875.153,562.86154l-24.34181-11.34872Z" transform="translate(-158.48551 -49)" fill="#6c63ff"/><path d="M982.7845,646.18c-.01-.03-.03-.14-.06-.31l-.03-.11q-.105-.54008-.24-1.2a269.77362,269.77362,0,0,0-7.85-29.97,92.05591,92.05591,0,0,0-7.47-17.34c-.1-.18-.21-.36-.32-.54l-.37-.6-3.11,1.14-.12.04-47.28,17.33-13.67,5.01-.43.16-2.33,9.5-32.69-4.23-26.64-3.45-7.65-.99a25.21415,25.21415,0,0,0-18.79,5.14,26.21121,26.21121,0,0,0-9.97,17.64c-.1.76-.16,1.53-.19,2.29l-2.31,86.17v.11l1.07,2.14,22.35,44.84h15.49l9.14-.01h7.43l-15.45-39.09.35-.53a17.1886,17.1886,0,0,0,1.77-15.23l1.74-5.04c3.61-10.41,1.9-15.41-.26-21.73a53.69334,53.69334,0,0,1-3.38-16.03l-.36-7.13c9.07,1.59,17.52,3.36,25.66,5.14q4.08.885,8.08,1.79c7.59,1.69,14.92,3.32,22.1,4.68,14.54,2.77,28.47,4.46,42.78,3.41.28-.02.56-.04.84-.07,3.48-.28,6.98-.73,10.52-1.36,1.99-.36,3.99-.77,6.01-1.25.56-.14,1.13-.28,1.69-.42a19.44525,19.44525,0,0,0,4.46-1.79,29.18512,29.18512,0,0,0,5.55-4.02c.01-.01.02-.01.02-.02q4.14-5.88006,8.07-11.94c1.41-2.17,2.81-4.36,4.18-6.56C983.11446,656.26,983.87447,650.72,982.7845,646.18Z" transform="translate(-158.48551 -49)" fill="#2f2e41"/><path d="M983.11446,629.99c-.15-.64-.34-1.29-.54-1.92a136.821,136.821,0,0,0-5.54-14.02c-2.36-5.2-5.19-10.77-8.56-16.8q-2.445-4.38006-5.26-9.11-1.41-2.37-2.93-4.83a2.53841,2.53841,0,0,0-.13-.22l-.29-.48-46.78,6.26-17.42,2.33-1.04,8.68-.25,2.15c-.01,0-.01,0,0,.01l-.7,5.86v.01l-.93,7.74-.08-.01-25.85-3.35-26.64-3.45-14.31-1.85a25.21442,25.21442,0,0,0-18.79,5.14,26.21138,26.21138,0,0,0-9.97,17.64c-.09.7-.15,1.42-.18005,2.13l-13.5,31.99a206.39521,206.39521,0,0,0-15.26,60.04l-9.9,31.65,1.41.13,20.98,1.95,5.54.52,12.2-17.81c1.39-2.03,2.71-4.12,3.94-6.26a95.0799,95.0799,0,0,0,5.39-10.84l26.39-62.8q3.06006.52506,6.06,1,13.875,2.25,26.64,3.67c27.67,3.09,51.63,3.33,72.96.71q8.985-1.095,17.37-2.88,3.075-.645,6.07-1.39c.47-.11.93-.22,1.39-.34a25.51934,25.51934,0,0,0,17.85-16.68A26.0381,26.0381,0,0,0,983.11446,629.99Z" transform="translate(-158.48551 -49)" fill="#2f2e41"/><ellipse cx="725.15362" cy="359.04106" rx="32.35848" ry="33.07961" fill="#ffb6b6"/><path d="M960.47451,584.42c-.05005-.37-.11005-.74-.19-1.11-.77-4.06-2.77-8.04-4.7-11.9-1.84-3.68-3.59-7.16-4.31-10.62-.71-3.41-.29-6.83.12-10.13.44-3.58.9-7.28-.13-10.87a266.744,266.744,0,0,0-21.4-52.86,40.18777,40.18777,0,0,0-33.35-28.06,9.4726,9.4726,0,0,0,1.07-5.46,9.25976,9.25976,0,0,0-3.41-6.27,8.92661,8.92661,0,0,0-6.59-1.92l-15.04,1.69a9.2197,9.2197,0,0,0-8.01,10.21,9.95822,9.95822,0,0,0,.5,2.18c-13.96,17.78-21.13,33.98-21.79,49.3v.01a52.2208,52.2208,0,0,0,.03,5.31,52.90759,52.90759,0,0,0,3.68,16.67,71.09819,71.09819,0,0,0,9.96,17.13q1.26,1.59,2.61,3.12,1.26,1.5,2.82,3.15l2.63,4.12,2.44995,3.85,13.1,30.23,6.67-.22.93,6.65.22,1.55,4.32,15.47.32,1.16,5.91-2.81,35.26-16.74,26.36-12.52Z" transform="translate(-158.48551 -49)" fill="#6c63ff"/><path d="M847.35032,530.42993A70.78162,70.78162,0,0,0,859.8522,550.5576c.90244,1.07758,1.85543,2.13608,2.85278,3.19649l5.11882,8.03164c18.86909-14.14349,34.15708-69.83229,34.15708-69.83229L880.69112,487.812Z" transform="translate(-158.48551 -49)" opacity="0.2" style="isolation:isolate"/><path d="M834.46115,444.211a14.22488,14.22488,0,0,1-4.80351,19.25035,13.64811,13.64811,0,0,1-2.02547.99349l1.50707,49.60326L807.65849,500.536l1.86209-45.031a14.18544,14.18544,0,0,1,6.10993-16.20467A13.57543,13.57543,0,0,1,834.46115,444.211Z" transform="translate(-158.48551 -49)" fill="#ffb6b6"/><path d="M831.02724,495.33428l-23.6224,3.3591,1.01571,48.91812a20.46787,20.46787,0,0,0,10.00628,17.249h0a19.61134,19.61134,0,0,0,23.426-2.6597L897.62277,508.558a21.14539,21.14539,0,0,0,1.55817-29.03614h0a20.054,20.054,0,0,0-28.73128-1.96732,20.57345,20.57345,0,0,0-1.57031,1.56406L832.054,521.48237Z" transform="translate(-158.48551 -49)" fill="#6c63ff"/><path d="M852.80446,789.38l-.87.16-11.76,2.17-3.83.71-6.03,1.11,2.14,8.63c2.57-1.39,5.11-2.82,7.64-4.28l.02-.01.06-.01v-.03q6.09-3.47993,12.03-7.2c.28-.17.56-.34.84-.53Z" transform="translate(-158.48551 -49)" fill="#2f2e41"/><path d="M765.2845,790.51l-14.73-7.06-2.31-1.11-3.69,9.06-25.76,5.67005a6.11226,6.11226,0,0,0-1,11.63l25.17,10.27,7.99-7.19-1.96,9.65,9.48,3.87,10.38995-33.07Z" transform="translate(-158.48551 -49)" fill="#2f2e41"/><path d="M970.22705,393.69459c-5.50024-6.41418-8.11521-14.92421-12.51229-22.20783-4.39707-7.28368-12.04884-13.8026-20.13243-12.10762-5.57235,1.16853-9.87876,6.08562-12.059,11.56768-2.17977,5.482-2.5884,11.52757-2.97046,17.45015.13494-12.17114-7.8837-23.97028-18.92974-27.85394-11.04519-3.88365-24.26426.44838-31.205,10.22647a16.86641,16.86641,0,0,0-22.40161-.47025c-6.20828,5.54874-7.58218,16.10982-3.01642,23.18739,4.56575,7.07751,14.4538,9.71414,21.70959,5.78884l2.56521,2.35968c-1.44391,5.05014,1.35619,11.01557,6.06321,12.9166,3.81682,1.54174,9.20532,1.28514,10.63362,5.29061.99816,2.79878-.86744,5.78616-2.852,7.93684-1.9841,2.15062-4.34014,4.37151-4.57841,7.34761-.36013,4.49043,4.28027,7.63606,8.49855,8.58341,10.17142,2.28446,21.45741-2.42573,27.3199-11.40211q.16951-.25966.36856-.52a39.27842,39.27842,0,0,0,7.90057-30.03344c-.32977-2.07467.00253-3.61783,1.43294-4.10916,6.18256-2.12369,23.50435,2.33353,28.74652,6.36188,5.24259,4.02836,9.44062,9.3595,14.49007,13.64783,5.04987,4.28838,11.48461,7.59626,17.89615,6.42846,5.135-.93528,9.50345-4.66327,12.44187-9.16,2.938-4.49671,4.629-9.73824,6.14376-14.9473C994.4251,406.536,978.88458,403.79016,970.22705,393.69459Z" transform="translate(-158.48551 -49)" fill="#2f2e41"/><path d="M866.81447,590.88v190.2q-6.77994,4.66506-13.77,9.02c-.28.19-.56.36-.84.53q-5.94,3.705-12.03,7.2V603.49a9.722,9.722,0,0,0-9.71-9.72h-403.02a9.73054,9.73054,0,0,0-9.72,9.72V783.46q-13.725-9.18-26.63-19.46V590.88a25.02909,25.02909,0,0,1,.39-4.44,26.0669,26.0669,0,0,1,25.66-21.62h423.61a25.05885,25.05885,0,0,1,4.45.38995,26.10544,26.10544,0,0,1,21.1,20.57A25.20521,25.20521,0,0,1,866.81447,590.88Z" transform="translate(-158.48551 -49)" fill="#e4e4e4"/><polygon points="381.974 456.366 393.555 507.321 400.955 515.427 406.294 515.427 384.291 422.781 383.202 438.52 383.202 438.531 381.974 456.366" fill="#3f3d56"/><path d="M579.02449,567.03a.98181.98181,0,0,0-.13-.22,2.01188,2.01188,0,0,0-.45-.64l-1.35-1.35-7.1-7.11005a2.80627,2.80627,0,0,0-1.95-.8h-.03l-5.01.03-4.31.03-6.02.04-41,.26-26.94995.17a2.785,2.785,0,0,0-2.75,2.77,2.89822,2.89822,0,0,0,.26,1.17l.52,1.11,1.09,2.33,1.42,3.05.7,1.5a2.775,2.775,0,0,0,2.51,1.6h88.01a2.8241,2.8241,0,0,0,2.54-3.94Z" transform="translate(-158.48551 -49)" fill="#3f3d56"/><path d="M485.2659,567.86762l.69482,1.50548a2.79888,2.79888,0,0,0,2.51307,1.59814H576.4873a2.81892,2.81892,0,0,0,2.53618-3.93747.83982.83982,0,0,0-.12744-.22Z" transform="translate(-158.48551 -49)" opacity="0.17"/><polygon points="383.202 438.52 383.202 438.531 402.044 515.427 406.294 515.427 384.291 422.781 383.202 438.52" opacity="0.17"/><path d="M571.24447,272.33l-2.76-.37a2.89236,2.89236,0,0,0-2.13.57l-1.65,1.27-18.37,22.98a2.89234,2.89234,0,0,0-1.1,1.92l-1.03,7.82-25.64,195.09a2.92532,2.92532,0,0,0,.51,2.05l12.08,33.3.36.52.78,1.11a2.93852,2.93852,0,0,0,1.66,1.14l1.75.44a2.8956,2.8956,0,0,0,2.34-.42,2.85169,2.85169,0,0,0,1.24-2.02l3.13-23.78v-.01l2-15.26,1.69-12.87v-.01l27.64-210.23A2.88659,2.88659,0,0,0,571.24447,272.33Z" transform="translate(-158.48551 -49)" fill="#3f3d56"/><path d="M564.70024,273.80086,531.15252,536.96444l.36446.51514.77734,1.10666a2.92913,2.92913,0,0,0,1.66049,1.14095l1.75253.44057a2.90581,2.90581,0,0,0,3.5792-2.438l34.45494-262.15663a2.89623,2.89623,0,0,0-2.49323-3.24776l-2.76713-.36368a2.85478,2.85478,0,0,0-2.131.57264Z" transform="translate(-158.48551 -49)" opacity="0.17"/><polygon points="405.226 232.327 387.423 257.738 366.263 418.739 377.735 441.498 405.226 232.327" fill="#6c63ff"/><polygon points="578.645 456.366 567.064 507.321 559.664 515.427 554.325 515.427 576.329 422.781 577.417 438.52 577.417 438.531 578.645 456.366" fill="#3f3d56"/><path d="M792.86446,557.44l-67.94-.43-6.03-.04-4.3-.03-5.01-.03h-.04a2.76486,2.76486,0,0,0-1.94.8l-8.46,8.46a2.18467,2.18467,0,0,0-.45.64.98223.98223,0,0,0-.13.22,2.82412,2.82412,0,0,0,2.54,3.94h88.01a2.80049,2.80049,0,0,0,2.52-1.6l.69-1.5,1.42-3.05,1.61-3.44a2.74179,2.74179,0,0,0,.26-1.17A2.785,2.785,0,0,0,792.86446,557.44Z" transform="translate(-158.48551 -49)" fill="#3f3d56"/><path d="M792.32431,567.86762l-.69481,1.50548a2.79888,2.79888,0,0,1-2.51307,1.59814H701.10292a2.81892,2.81892,0,0,1-2.53618-3.93747.83982.83982,0,0,1,.12744-.22Z" transform="translate(-158.48551 -49)" opacity="0.17"/><polygon points="577.417 438.52 577.417 438.531 558.575 515.427 554.325 515.427 576.329 422.781 577.417 438.52" opacity="0.17"/><path d="M759.02449,501.61l-26.67-202.91a2.89234,2.89234,0,0,0-1.1-1.92l-18.36-22.98-1.65-1.27a2.92891,2.92891,0,0,0-2.14-.57l-2.76.37a2.89374,2.89374,0,0,0-2.5,3.24l27.64,210.24v.01l1.69,12.86,2.01,15.27v.02l3.12,23.76a2.83188,2.83188,0,0,0,1.25,2.02,2.87273,2.87273,0,0,0,2.33.42l1.75-.44a2.93883,2.93883,0,0,0,1.66-1.14l.78-1.11.36-.52,12.08-33.3A2.87586,2.87586,0,0,0,759.02449,501.61Z" transform="translate(-158.48551 -49)" fill="#3f3d56"/><path d="M712.89,273.80086,746.4377,536.96444l-.36446.51514-.77735,1.10666a2.92908,2.92908,0,0,1-1.66048,1.14095l-1.75253.44057a2.90581,2.90581,0,0,1-3.5792-2.438L703.84874,275.57315a2.89623,2.89623,0,0,1,2.49323-3.24776l2.76712-.36368a2.85479,2.85479,0,0,1,2.131.57264Z" transform="translate(-158.48551 -49)" opacity="0.17"/><polygon points="555.393 232.327 573.196 257.738 594.356 418.739 582.884 441.498 555.393 232.327" fill="#6c63ff"/><path d="M382.98446,605.93a8.20952,8.20952,0,0,1-.13,1.5c-.04.24-.09.47-.15.7a8.69253,8.69253,0,0,1-8.41,6.49h-37.63v89.75a8.64844,8.64844,0,0,1-1.77,5.25c-.86-1.01-1.71-2.02-2.55-3.04q-6.75-8.06993-13.05-16.5V614.62h-16.8a8.68518,8.68518,0,0,1-.72-17.34q.36-.02994.72-.03h71.8A8.687,8.687,0,0,1,382.98446,605.93Z" transform="translate(-158.48551 -49)" fill="#3f3d56"/><path d="M982.61446,605.93a8.69431,8.69431,0,0,1-5.58,8.12,8.509,8.509,0,0,1-2.43.54c-.22.02-.45.03-.67.03h-16.79v81.46c-.25.33-.51.66-.77.99q-5.925,7.575-12.21,14.85a8.62245,8.62245,0,0,1-4.39-7.55V614.62h-37.64a8.50319,8.50319,0,0,1-3.24-.63,8.65936,8.65936,0,0,1-5.22-6.08v-.01a8.58476,8.58476,0,0,1,.7-5.86c-.01-.01-.01-.01,0-.01a8.496,8.496,0,0,1,1.54-2.16,8.69211,8.69211,0,0,1,6.22-2.62h71.8A8.67851,8.67851,0,0,1,982.61446,605.93Z" transform="translate(-158.48551 -49)" fill="#3f3d56"/><path d="M982.03976,438.592a27.21468,27.21468,0,0,0-27.2147,27.21463v.00007a27.2195,27.2195,0,0,0,22.00337,26.71066v44.5108h17.37109V438.592Z" transform="translate(-158.48551 -49)" fill="#3f3d56"/><path d="M506.89042,537.96637a13.74182,13.74182,0,0,0-19.845,7.08371l-31.37851,1.22359L451.439,560.88979l44.609,2.28356a13.81627,13.81627,0,0,0,10.84249-25.207Z" transform="translate(-158.48551 -49)" fill="#9e616a"/><path d="M481.11545,564.74951l-32.23215-.40179-4.08-.05523-65.57765-.82626s-17.80811-16.98919-33.31458-34.48081l2.17343-15.72032a64.22785,64.22785,0,0,1,21.53521-39.76662c22.209,14.83987,35.08839,44.21373,35.08839,44.21373l21.595,9.66309,0,0a94.54731,94.54731,0,0,1,43.17007,12.643l7.10163,4.11426Z" transform="translate(-158.48551 -49)" fill="#6c63ff"/><path d="M582.38448,846.81h116.26q-11.895,1.74-24.01,2.75h-68.24Q594.27446,848.555,582.38448,846.81Z" transform="translate(-158.48551 -49)" fill="#ccc"/><path d="M605.75883,788.28059c2.25015-20.307,14.54736-40.45006,33.79374-47.306a94.13475,94.13475,0,0,0,.86869,64.624c3.07842,7.99668,7.335,16.57037,4.64871,24.70721-1.67139,5.063-5.8735,8.97566-10.596,11.45018-4.72279,2.47452-9.98452,3.69418-15.18051,4.89l-1.01422.86191C609.757,828.93881,603.50869,808.58759,605.75883,788.28059Z" transform="translate(-158.48551 -49)" fill="#ccc"/><path d="M639.74956,741.35532a80.45991,80.45991,0,0,0-19.395,45.54616,34.64868,34.64868,0,0,0,.53913,10.84273,19.87257,19.87257,0,0,0,5.06535,9.15043c2.26025,2.41761,4.8522,4.62881,6.48541,7.55375a12.16807,12.16807,0,0,1,.72721,9.9247c-1.35321,4.05483-4.08269,7.38161-6.86494,10.54216-3.08917,3.50919-6.35344,7.1052-7.62482,11.71969-.154.55911-1.01259.2874-.85878-.27087,2.212-8.02844,9.91464-12.67493,13.52068-19.92762,1.68264-3.38423,2.3556-7.29606.68858-10.82243-1.45774-3.08366-4.12863-5.36615-6.43833-7.79425a21.20562,21.20562,0,0,1-5.28619-8.76262,32.032,32.032,0,0,1-.954-10.782,78.06057,78.06057,0,0,1,5.38344-23.796,81.88649,81.88649,0,0,1,14.4075-23.79115c.37922-.43624.98155.23394.60481.66733Z" transform="translate(-158.48551 -49)" fill="#fff"/><path d="M620.524,781.44932A12.07154,12.07154,0,0,1,611.167,768.9279a.45063.45063,0,0,1,.90011.0329,11.178,11.178,0,0,0,8.72782,11.62974c.56546.12648.29135.98454-.27087.85878Z" transform="translate(-158.48551 -49)" fill="#fff"/><path d="M624.65152,805.81976a23.26694,23.26694,0,0,0,10.21-13.53775c.156-.55854,1.01461-.287.85877.27088a24.20107,24.20107,0,0,1-10.65307,14.06565c-.49533.30285-.90835-.49758-.41571-.79878Z" transform="translate(-158.48551 -49)" fill="#fff"/><path d="M628.9947,756.627a6.833,6.833,0,0,0,6.47047-.41526c.49125-.309.90376.49183.41571.79879a7.657,7.657,0,0,1-7.15706.47524.46537.46537,0,0,1-.29395-.56482.45251.45251,0,0,1,.56483-.29395Z" transform="translate(-158.48551 -49)" fill="#fff"/><path d="M698.97125,776.39716c-.30125.20165-.6025.4033-.904.61257a89.987,89.987,0,0,0-11.38485,9.136c-.27791.25455-.55571.5167-.82573.7787a94.86758,94.86758,0,0,0-20.22433,28.47617,92.12742,92.12742,0,0,0-4.87143,13.12291c-1.77936,6.20306-3.21508,13.07034-6.83321,18.17311a15.80481,15.80481,0,0,1-1.21084,1.53631l-33.30742.44531c-.07621-.037-.15268-.06638-.22926-.10335l-1.32905.07859c.05029-.23629.10752-.48028.1578-.71657.0286-.13719.06462-.27447.09321-.41166.02142-.09149.04321-.183.0573-.26681.007-.03048.0144-.061.02152-.08389.01409-.08378.03608-.16011.05028-.23629q.47421-2.04706.97883-4.09459c-.0001-.0076-.0001-.0076.00722-.01531A135.4611,135.4611,0,0,1,630.216,812.75029c.14837-.2832.29627-.574.45986-.85741a87.91128,87.91128,0,0,1,7.73557-12.08194,77.71847,77.71847,0,0,1,5.096-5.989,64.62733,64.62733,0,0,1,16.009-12.32936c11.8618-6.467,25.65984-9.06851,38.47826-5.38639C698.3225,776.20065,698.6433,776.29513,698.97125,776.39716Z" transform="translate(-158.48551 -49)" fill="#ccc"/><path d="M698.902,776.8209a80.46,80.46,0,0,0-42.90779,24.6889,34.64877,34.64877,0,0,0-6.0976,8.98191,19.87264,19.87264,0,0,0-1.4648,10.3558c.34912,3.29115,1.08735,6.6172.63036,9.9359a12.168,12.168,0,0,1-5.39471,8.36216c-3.52175,2.42282-7.704,3.43574-11.82839,4.28415-4.57929.942-9.35068,1.84789-13.14405,4.76685-.45962.35368-.98153-.38018-.5226-.73332,6.59981-5.07849,15.54746-4.15092,22.7933-7.7707,3.381-1.689,6.27355-4.40726,7.06565-8.22653.69265-3.33979-.06569-6.7703-.448-10.0996a21.20582,21.20582,0,0,1,1.055-10.17911,32.032,32.032,0,0,1,5.72979-9.1832,78.06039,78.06039,0,0,1,18.62522-15.75858,81.88651,81.88651,0,0,1,25.82749-10.32159c.56544-.12.64287.77775.08113.897Z" transform="translate(-158.48551 -49)" fill="#fff"/><path d="M659.41215,797.25862a12.07156,12.07156,0,0,1,.06767-15.63125c.37854-.43862,1.07792.129.69888.5682a11.178,11.178,0,0,0-.03323,14.54045c.37535.44143-.36012.96151-.73332.5226Z" transform="translate(-158.48551 -49)" fill="#fff"/><path d="M648.035,819.20209a23.267,23.267,0,0,0,16.30278-4.662c.46085-.352.9829.38171.5226.73332a24.20114,24.20114,0,0,1-16.97438,4.81676c-.57782-.05642-.42569-.94419.149-.88807Z" transform="translate(-158.48551 -49)" fill="#fff"/><path d="M681.12026,782.53931a6.83312,6.83312,0,0,0,5.41633,3.56412c.57825.04906.42548.93681-.149.88807a7.657,7.657,0,0,1-6.00065-3.92959.46538.46538,0,0,1,.10536-.628.45252.45252,0,0,1,.628.10536Z" transform="translate(-158.48551 -49)" fill="#fff"/></svg>