<svg id="bcf59adc-223a-4157-a407-747a33aa004d" data-name="Layer 1" xmlns="http://www.w3.org/2000/svg" width="653.80018" height="552.47648" viewBox="0 0 653.80018 552.47648"><path d="M425.38978,377.21733c-33.16617-32.64969-47.174-66.71151-39.4442-95.91008,9.9198-37.47017,53.98856-63.37762,120.90656-71.07941l.24715,2.14936c-65.98643,7.59406-109.38293,32.92007-119.06244,69.4835-7.52277,28.41592,6.28173,61.73366,38.87069,93.81564Z" transform="translate(-273.09991 -173.76176)" fill="#f0f0f0"/><path d="M745.38736,493.11383c-41.39341,0-86.37473-6.1513-131.054-17.97965-55.25178-14.62727-105.91174-36.70548-146.503-63.84869l1.202-1.79764c40.39584,27.01171,90.83135,48.98905,145.85446,63.55506,49.72364,13.16444,99.82012,19.264,144.8553,17.65434l.07816,2.161Q752.68622,493.11488,745.38736,493.11383Z" transform="translate(-273.09991 -173.76176)" fill="#f0f0f0"/><path d="M840.349,479.51107l-.69286-2.049c37.02076-12.517,60.17577-32.68032,66.96183-58.3121,8.626-32.58421-10.11414-70.39606-52.76866-106.47047C810.97719,276.42182,749.15482,246.3371,679.768,227.96825l.55344-2.09127c69.69,18.44965,131.81338,48.69015,174.92418,85.15113,43.32836,36.6437,62.31562,75.23872,53.46363,108.67527C901.72881,446.07028,878.09006,466.75115,840.349,479.51107Z" transform="translate(-273.09991 -173.76176)" fill="#f0f0f0"/><path d="M500.412,494.01793c-81.33562-36.07335-144.01087-82.874-176.47942-131.7817l1.80187-1.19667c32.24411,48.56922,94.59036,95.09259,175.55419,131.00117Z" transform="translate(-273.09991 -173.76176)" fill="#f0f0f0"/><path d="M786.38153,556.51205q-12.58405,0-25.598-.5619l.09295-2.161c64.74593,2.80315,121.87246-4.94511,165.21455-22.41144l.809,2.00677C889.09141,548.61909,840.90137,556.51205,786.38153,556.51205Z" transform="translate(-273.09991 -173.76176)" fill="#f0f0f0"/><path d="M739.1896,212.16754c-13.44328-4.37688-27.271-8.45221-41.09874-12.113-79.57335-21.06585-157.79477-28.54531-226.211-21.62563l-.21757-2.15253c68.67128-6.94239,147.16045.555,226.982,21.68689,13.86681,3.67134,27.73362,7.75829,41.21492,12.14785Z" transform="translate(-273.09991 -173.76176)" fill="#f0f0f0"/><path d="M374.55713,380.462c-33.16617-32.64969-47.174-66.71151-39.4442-95.91008,9.9198-37.47017,53.98856-63.37763,120.90656-71.07941l.24715,2.14936c-65.98643,7.59405-109.38292,32.92007-119.06244,69.4835-7.52276,28.41592,6.28173,61.73366,38.87069,93.81564Z" transform="translate(-273.09991 -173.76176)" fill="#f0f0f0"/><path d="M694.55471,496.35846c-41.39341,0-86.37473-6.15129-131.054-17.97964-55.25178-14.62727-105.91174-36.70548-146.503-63.84869l1.202-1.79765c40.39584,27.01171,90.83136,48.98906,145.85446,63.55507,49.72365,13.16444,99.82012,19.264,144.85531,17.65433l.07816,2.161Q701.85356,496.35953,694.55471,496.35846Z" transform="translate(-273.09991 -173.76176)" fill="#f0f0f0"/><path d="M789.51633,482.7557l-.69287-2.049c37.02076-12.517,60.17577-32.68032,66.96183-58.31211,8.626-32.5842-10.11414-70.396-52.76865-106.47046-42.87209-36.25766-104.69447-66.34237-174.08133-84.71122l.55345-2.09127c69.69,18.44965,131.81338,48.69015,174.92417,85.15113,43.32837,36.64369,62.31562,75.23872,53.46363,108.67527C850.89616,449.31492,827.25741,469.99579,789.51633,482.7557Z" transform="translate(-273.09991 -173.76176)" fill="#f0f0f0"/><path d="M449.57933,497.26257c-81.33561-36.07335-144.01087-82.874-176.47942-131.7817l1.80187-1.19667c32.24411,48.56922,94.59036,95.09258,175.5542,131.00117Z" transform="translate(-273.09991 -173.76176)" fill="#f0f0f0"/><path d="M735.54889,559.75669q-12.58407,0-25.598-.5619l.09294-2.161c64.74593,2.80315,121.87246-4.94511,165.21456-22.41144l.809,2.00677C838.25876,551.86373,790.06872,559.75669,735.54889,559.75669Z" transform="translate(-273.09991 -173.76176)" fill="#f0f0f0"/><path d="M688.357,215.41218c-13.44328-4.37688-27.271-8.45221-41.09874-12.113-79.57335-21.06585-157.79477-28.54531-226.211-21.62564l-.21758-2.15253c68.67129-6.94238,147.16045.555,226.982,21.6869,13.86681,3.67134,27.73362,7.75829,41.21492,12.14785Z" transform="translate(-273.09991 -173.76176)" fill="#f0f0f0"/><path d="M309.96867,322.525c15.54428-17.4282,40.34-28.05015,62.81051-21.69167a107.59669,107.59669,0,0,0-41.987,60.78006c-2.42777,9.48847-4.14006,20.29473-12.03117,26.09616-4.91,3.60989-11.41583,4.47224-17.4541,3.65013-6.03855-.82229-11.74815-3.17054-17.38071-5.4975l-1.51566.13132C286.76817,363.05062,294.4244,339.95323,309.96867,322.525Z" transform="translate(-273.09991 -173.76176)" fill="#f2f2f2"/><path d="M372.71054,301.31855a91.96618,91.96618,0,0,0-48.231,29.58745,39.6041,39.6041,0,0,0-6.67817,10.45829,22.71447,22.71447,0,0,0-1.34077,11.87915c.50466,3.74909,1.455,7.52556,1.03955,11.332a13.90813,13.90813,0,0,1-5.895,9.7276c-3.94592,2.8814-8.69186,4.17313-13.37688,5.275-5.20182,1.22346-10.62428,2.41184-14.8646,5.86883-.51377.41886-1.13366-.40283-.62066-.82106,7.37742-6.01457,17.63041-5.24235,25.79284-9.611,3.80874-2.0385,7.02622-5.23716,7.80849-9.62634.68405-3.83815-.29264-7.73332-.83643-11.52494a24.23815,24.23815,0,0,1,.87821-11.6641,36.61282,36.61282,0,0,1,6.25146-10.67646,89.22344,89.22344,0,0,1,20.77385-18.60364A93.59708,93.59708,0,0,1,372.589,300.29632c.64218-.15528.75951.868.12153,1.02223Z" transform="translate(-273.09991 -173.76176)" fill="#fff"/><path d="M328.24807,325.93894a13.79786,13.79786,0,0,1-.42506-17.86173c.41839-.51332,1.23572.11274.81677.62674a12.7765,12.7765,0,0,0,.42936,16.61432c.443.4923-.38057,1.11015-.82107.62067Z" transform="translate(-273.09991 -173.76176)" fill="#fff"/><path d="M315.95435,351.3762a26.59426,26.59426,0,0,0,18.477-5.85056c.51524-.417,1.13528.40454.62066.82106a27.662,27.662,0,0,1-19.23934,6.04895c-.662-.04589-.51671-1.06509.1417-1.01945Z" transform="translate(-273.09991 -173.76176)" fill="#fff"/><path d="M352.5777,308.42364a7.81024,7.81024,0,0,0,6.303,3.89812c.66226.03747.51625,1.05669-.1417,1.01946a8.752,8.752,0,0,1-6.98236-4.29691.53194.53194,0,0,1,.1002-.72087.51723.51723,0,0,1,.72087.1002Z" transform="translate(-273.09991 -173.76176)" fill="#fff"/><path d="M404.67647,373.18277c-.41419-.01164-.82838-.02328-1.24786-.028a102.857,102.857,0,0,0-16.65653.97184c-.42747.0531-.85989.11336-1.285.17863a108.43391,108.43391,0,0,0-37.69922,13.13559,105.30443,105.30443,0,0,0-13.22876,8.99948c-5.76556,4.60052-11.65085,10.0474-18.40079,12.40517a18.06568,18.06568,0,0,1-2.14544.62939l-31.32463-21.64248c-.0465-.08491-.09827-.163-.14513-.24811l-1.2902-.80693c.20332-.18683.41821-.37623.62154-.56306.11749-.10887.242-.21292.35945-.32178.08054-.07106.16146-.14191.23007-.21063.02672-.02375.05379-.04726.0756-.0639.06862-.06872.13965-.12526.20332-.18683q1.79742-1.593,3.62348-3.16637c.00494-.00715.00494-.00715.01686-.00948a154.83325,154.83325,0,0,1,30.16537-20.73752c.32577-.16558.65614-.33855.99622-.49424a100.48221,100.48221,0,0,1,15.20766-6.133,88.8288,88.8288,0,0,1,8.71358-2.20469,73.869,73.869,0,0,1,23.07919-.88449c15.33336,1.83048,29.91061,8.54447,39.414,20.4636C404.20222,372.57007,404.43852,372.87053,404.67647,373.18277Z" transform="translate(-273.09991 -173.76176)" fill="#f2f2f2"/><path d="M404.33136,373.53168a91.96623,91.96623,0,0,0-56.32343-5.41446,39.6037,39.6037,0,0,0-11.62876,4.32963,22.71453,22.71453,0,0,0-8.2226,8.6776c-1.85427,3.29728-3.36915,6.88477-5.99265,9.67389a13.90819,13.90819,0,0,1-10.56352,4.21774c-4.8854-.07508-9.45247-1.90109-13.85662-3.842-4.89-2.155-9.935-4.47083-15.402-4.26358-.66241.02511-.66264-1.00418-.00124-1.02926,9.51165-.36057,17.23316,6.429,26.38064,7.85522,4.26838.66549,8.76318.04869,12.03037-2.98485,2.857-2.6527,4.42233-6.35082,6.271-9.70561a24.23822,24.23822,0,0,1,7.7238-8.78438,36.6127,36.6127,0,0,1,11.4194-4.76075,89.22364,89.22364,0,0,1,27.78744-2.34668,93.5969,93.5969,0,0,1,30.89662,7.48812c.60624.26265.08386,1.15029-.51842.88935Z" transform="translate(-273.09991 -173.76176)" fill="#fff"/><path d="M354.0074,366.42021A13.79786,13.79786,0,0,1,364.422,351.9027c.64312-.15795.91878.834.27481.99217a12.7765,12.7765,0,0,0-9.66015,13.52411c.05734.65981-.97225.65727-1.02926.00123Z" transform="translate(-273.09991 -173.76176)" fill="#fff"/><path d="M328.87656,379.32877a26.59423,26.59423,0,0,0,18.27527,6.45307c.66247-.02276.66291,1.00652.00124,1.02926a27.662,27.662,0,0,1-19.00343-6.75367c-.50094-.43521.2287-1.16151.72692-.72866Z" transform="translate(-273.09991 -173.76176)" fill="#fff"/><path d="M383.97866,367.08334a7.81028,7.81028,0,0,0,2.68565,6.90727c.50622.42865-.224,1.15452-.72692.72866a8.752,8.752,0,0,1-2.988-7.6347.53192.53192,0,0,1,.514-.51524.51722.51722,0,0,1,.51524.514Z" transform="translate(-273.09991 -173.76176)" fill="#fff"/><path d="M919.04842,465.393c-8.78239-21.63877-28.56561-39.97665-51.866-41.5404a107.59666,107.59666,0,0,1,19.1163,71.35609c-.90254,9.75246-2.92185,20.50558,2.56034,28.62173,3.411,5.05013,9.24862,8.04893,15.21193,9.30411,5.96363,1.2551,12.13034.96246,18.21732.664l1.38334.63309C927.2786,511.35873,927.8308,487.03173,919.04842,465.393Z" transform="translate(-273.09991 -173.76176)" fill="#f2f2f2"/><path d="M867.084,424.3326a91.9661,91.9661,0,0,1,35.48087,44.07668,39.60352,39.60352,0,0,1,2.77465,12.09442,22.71453,22.71453,0,0,1-2.72981,11.63873c-1.73537,3.36138-3.89972,6.59874-4.78778,10.32343a13.90818,13.90818,0,0,0,2.28262,11.143c2.74794,4.04,6.78363,6.8517,10.82576,9.46414,4.488,2.90063,9.1956,5.84236,12.02735,10.52342.3431.56717,1.20311.00162.86052-.56469-4.92676-8.14424-14.84284-10.863-21.06211-17.72089-2.902-3.2-4.85727-7.294-4.11883-11.69078.64574-3.84478,2.87479-7.18509,4.66131-10.57337A24.23817,24.23817,0,0,0,906.3917,481.766a36.61266,36.61266,0,0,0-2.29942-12.15649,89.2236,89.2236,0,0,0-13.31267-24.5035,93.59685,93.59685,0,0,0-23.2376-21.69532c-.55263-.36208-1.00705.5622-.458.92192Z" transform="translate(-273.09991 -173.76176)" fill="#fff"/><path d="M900.685,462.46456a13.79784,13.79784,0,0,0,6.40367-16.67977c-.22153-.62408-1.20172-.30915-.9799.31576a12.77649,12.77649,0,0,1-5.98846,15.50349c-.58272.31476-.01469,1.17348.56469.86052Z" transform="translate(-273.09991 -173.76176)" fill="#fff"/><path d="M903.71407,490.554a26.59418,26.59418,0,0,1-15.43573-11.72032c-.3451-.56594-1.20521-.00056-.86052.56469a27.662,27.662,0,0,0,16.08707,12.16341c.63891.17928.84463-.82947.20918-1.00778Z" transform="translate(-273.09991 -173.76176)" fill="#fff"/><path d="M883.6576,437.791a7.81023,7.81023,0,0,1-7.24648,1.55291c-.63633-.18729-.84137.82171-.20919,1.00778a8.752,8.752,0,0,0,8.02036-1.70017.53193.53193,0,0,0,.14792-.71261.51723.51723,0,0,0-.71261-.14791Z" transform="translate(-273.09991 -173.76176)" fill="#fff"/><path d="M812.82405,481.27245c.394.12824.788.25649,1.18469.393a102.85671,102.85671,0,0,1,15.36092,6.51357c.38476.19368.77176.39577,1.15016.6001a108.43419,108.43419,0,0,1,31.09124,25.04216,105.30311,105.30311,0,0,1,9.43446,12.92214c3.88393,6.27069,7.59615,13.37875,13.161,17.868a18.06292,18.06292,0,0,0,1.80909,1.31385l36.7764-9.85524c.07234-.06434.14732-.12044.22007-.18489l1.48636-.32635c-.1287-.2443-.26743-.49491-.39613-.73921-.07407-.142-.15633-.28185-.2304-.42388-.052-.094-.10437-.18791-.14589-.2757-.01719-.03134-.03478-.06258-.04973-.08558-.04153-.08779-.08942-.16492-.1287-.2443q-1.15743-2.10449-2.34846-4.2c-.00225-.00839-.00225-.00839-.0127-.0146a154.83307,154.83307,0,0,0-21.44065-29.66972c-.25117-.26544-.50419-.53938-.77215-.80032A100.48375,100.48375,0,0,0,886.71192,488.218a88.8341,88.8341,0,0,0-7.46568-5.00507,73.86942,73.86942,0,0,0-21.43931-8.59c-15.05659-3.42954-31.0424-2.00554-43.999,6.0261C813.47664,480.85479,813.15311,481.05835,812.82405,481.27245Z" transform="translate(-273.09991 -173.76176)" fill="#f2f2f2"/><path d="M813.03182,481.71706a91.96607,91.96607,0,0,1,54.86669,13.83083,39.60347,39.60347,0,0,1,9.49708,7.98619,22.71457,22.71457,0,0,1,4.82772,10.9364c.63818,3.72869.85918,7.61663,2.39264,11.12526a13.90814,13.90814,0,0,0,8.53141,7.52278c4.62643,1.57127,9.54154,1.38648,14.34182,1.03873,5.3298-.3861,10.85968-.87159,15.939,1.16106.61543.24629.9616-.723.3471-.969-8.83713-3.53647-18.39143.26294-27.48612-1.4683-4.24374-.80782-8.26976-2.89945-10.3273-6.85461-1.79924-3.45863-2.03057-7.46771-2.64411-11.24867a24.23827,24.23827,0,0,0-4.322-10.86933,36.61286,36.61286,0,0,0-9.155-8.32186,89.22381,89.22381,0,0,0-25.38221-11.54953,93.59712,93.59712,0,0,0-31.616-3.33185c-.65925.04362-.46559,1.05519.18935,1.01186Z" transform="translate(-273.09991 -173.76176)" fill="#fff"/><path d="M862.81841,491.93318a13.79785,13.79785,0,0,0-4.92941-17.17332c-.55262-.36492-1.14564.47668-.59228.84208a12.77651,12.77651,0,0,1,4.55272,15.98414c-.27576.60216.69478.9458.969.3471Z" transform="translate(-273.09991 -173.76176)" fill="#fff"/><path d="M882.14872,512.53727a26.59425,26.59425,0,0,1-19.381-.06464c-.61628-.2441-.96264.72516-.3471.969a27.662,27.662,0,0,0,20.16783.02628c.61808-.24153.175-1.17081-.43973-.9306Z" transform="translate(-273.09991 -173.76176)" fill="#fff"/><path d="M834.36781,482.48438a7.81022,7.81022,0,0,1-4.851,5.6028c-.62083.23358-.17706,1.16265.43973.9306a8.752,8.752,0,0,0,5.38019-6.1863.53191.53191,0,0,0-.31094-.658.51722.51722,0,0,0-.658.31093Z" transform="translate(-273.09991 -173.76176)" fill="#fff"/><circle cx="183.56415" cy="116.66181" r="8.65237" fill="#fd6584"/><circle cx="506.21241" cy="209.29272" r="8.65237" fill="#e6e6e6"/><circle cx="183.21241" cy="19.29272" r="8.65237" fill="#e6e6e6"/><path d="M411.62318,726.22847a31.07552,31.07552,0,0,1-29.58349-40.67089l91.4458-283.2295.17382-.0957,110.56543-60.73291.1919.564a764.73822,764.73822,0,0,1,21.521,80.2666c8.32325,40.021,15.376,94.13965,1.71094,124.68554-21.20459,47.39844-130.6997,136.51075-176.7915,172.624A31.21808,31.21808,0,0,1,411.62318,726.22847Z" transform="translate(-273.09991 -173.76176)" fill="#ffb6b6"/><path d="M698.63632,301.92681l32.548,3.09981s17.049,37.19775-35.64783,40.29754Z" transform="translate(-273.09991 -173.76176)" fill="#ffb6b6"/><path d="M698.63632,359.27332l32.548,3.09982s17.049,37.19773-35.64783,40.29755Z" transform="translate(-273.09991 -173.76176)" fill="#ffb6b6"/><path d="M698.63632,421.26957l32.548,3.09982s17.049,37.19775-35.64783,40.29755Z" transform="translate(-273.09991 -173.76176)" fill="#ffb6b6"/><path d="M689.33689,483.26581l32.548,3.09983s17.049,37.19772-35.64783,40.29754Z" transform="translate(-273.09991 -173.76176)" fill="#ffb6b6"/><path d="M714.482,294.87049h-2.46967V227.215a39.15721,39.15721,0,0,0-39.1571-39.15723H529.51773a39.15718,39.15718,0,0,0-39.15728,39.15707V598.37855a39.1572,39.1572,0,0,0,39.15716,39.15722H672.85507a39.1572,39.1572,0,0,0,39.15729-39.1571V343.02887H714.482Z" transform="translate(-273.09991 -173.76176)" fill="#3f3d56"/><path d="M703.67514,227.48655v370.62a29.2361,29.2361,0,0,1-29.23224,29.24H530.40512a29.23829,29.23829,0,0,1-29.23974-29.23687V227.48658a29.23836,29.23836,0,0,1,29.23669-29.24h17.483a13.89127,13.89127,0,0,0,12.86036,19.14h82.11962a13.89737,13.89737,0,0,0,12.86036-19.14h18.71a29.23833,29.23833,0,0,1,29.23968,29.237Z" transform="translate(-273.09991 -173.76176)" fill="#f2f2f2"/><rect x="711.38346" y="308.05614" width="20.43018" height="1.00012" transform="translate(-335.27598 94.68541) rotate(-20.22209)" opacity="0.2" style="isolation:isolate"/><rect x="711.38346" y="366.05614" width="20.43018" height="1.00012" transform="translate(-355.32426 98.26054) rotate(-20.22209)" opacity="0.2" style="isolation:isolate"/><rect x="711.38345" y="428.05615" width="20.43018" height="1.00012" transform="translate(-376.75518 102.08223) rotate(-20.22209)" opacity="0.2" style="isolation:isolate"/><rect x="711.34039" y="488.76484" width="10.35284" height="0.99982" transform="translate(-414.25497 184.44846) rotate(-25.63899)" opacity="0.2" style="isolation:isolate"/><rect x="238.97953" y="59.86328" width="44.68164" height="2" fill="#fff"/><rect x="306.97953" y="59.86328" width="44.68164" height="2" fill="#fff"/><path d="M672.46791,473.09908H526.81654a3.73706,3.73706,0,1,1,0-7.47412H672.46791a3.73706,3.73706,0,0,1,0,7.47412Z" transform="translate(-273.09991 -173.76176)" fill="#ccc"/><path d="M672.46791,499.09908H526.81654a3.73706,3.73706,0,1,1,0-7.47412H672.46791a3.73706,3.73706,0,0,1,0,7.47412Z" transform="translate(-273.09991 -173.76176)" fill="#ccc"/><path d="M672.46791,525.09908H526.81654a3.73706,3.73706,0,1,1,0-7.47412H672.46791a3.73706,3.73706,0,0,1,0,7.47412Z" transform="translate(-273.09991 -173.76176)" fill="#ccc"/><rect x="374.97953" y="59.86328" width="44.68164" height="2" fill="#fff"/><rect x="238.97953" y="418.86328" width="44.68164" height="2" fill="#fff"/><rect x="306.97953" y="418.86328" width="44.68164" height="2" fill="#fff"/><rect x="374.97953" y="418.86328" width="44.68164" height="2" fill="#fff"/><circle cx="329.32035" cy="174.416" r="61.78913" fill="#6c63ff"/><path d="M597.02591,372.39532c-.13342,0-.26846-.00322-.40349-.00965a8.2298,8.2298,0,0,1-6.09905-3.17009L580.78482,356.696a8.245,8.245,0,0,1,1.44358-11.5583l.34884-.27168a8.24971,8.24971,0,0,1,11.56151,1.442,4.94022,4.94022,0,0,0,3.662,1.90334,4.84583,4.84583,0,0,0,3.8308-1.53682L621.40444,325.802a8.24663,8.24663,0,0,1,11.6435-.31509l.32151.30383a8.24591,8.24591,0,0,1,.31668,11.64511l-30.68334,32.38735A8.22273,8.22273,0,0,1,597.02591,372.39532Z" transform="translate(-273.09991 -173.76176)" fill="#fff"/><path d="M405.47719,726.23824a32.39227,32.39227,0,0,1-9.96582-1.57031l-72.44-23.40039a31.1334,31.1334,0,0,1-11.94775-52.126l90.21582-86.2793,4.814-98.68359A108.19593,108.19593,0,0,1,436.318,393.79293c22.47753-23.09766,63.32128-35.10889,103.96972-9.94141l51.21485-13.05469.165.40235a33.53791,33.53791,0,0,1-2.53321,27.21533c-8.45263,14.90576-28.25439,24.82031-58.85449,29.46826l-25.81543,4.96484c-13.15674,14.73536-11.77393,33.96583-10.17383,56.22315.54444,7.57275,1.10742,15.40283,1.10742,23.44287V620.83687c0,18.58692-41.17382,67.25489-65.71728,94.61035A32.526,32.526,0,0,1,405.47719,726.23824Z" transform="translate(-273.09991 -173.76176)" fill="#ffb6b6"/><polygon points="270.024 224.793 267.48 210.599 268.464 210.423 270.814 223.537 319.631 210.04 319.897 211.004 270.024 224.793" opacity="0.2" style="isolation:isolate"/><rect x="213.10482" y="85.62687" width="8" height="43" fill="#3f3d56"/><rect x="213.10482" y="133.62687" width="8" height="25" fill="#3f3d56"/><rect x="213.10482" y="163.62687" width="8" height="25" fill="#3f3d56"/><circle cx="290.10482" cy="30.62687" r="4" fill="#fff"/></svg>